#!OML:ASF H:\MichaelJackson\Top Level 1\Subject 1\Session 1\male.ASF
:FULLY-SPECIFIED
:DEGREES
130
root 5.27988 18.4835 -11.0495 15.015 7.15955 -1.56921
lowerback -1.81879 -0.924635 -1.39755
upperback -0.927696 -1.20825 -0.87863
thorax 0.0793501 -0.601558 -0.138622
lowerneck -9.20026 -3.8924 1.02566
upperneck 4.40275 -5.86379 7.66492
head 3.29517 -2.585 2.01233
rclavicle 1.86858e-014 7.95139e-015
rhumerus 3.06696 8.41683 3.66762
rradius 106.604
rwrist -7.45466
rhand -34.3221 -26.3448
rfingers 7.12502
rthumb -7.49048 -56.1922
lclavicle 1.86858e-014 7.95139e-015
lhumerus 30.6856 5.12871 8.9054
lradius 103.472
lwrist 40.9704
lhand -22.8409 -3.53113
lfingers 7.12502
lthumb 3.59677 26.4183
rfemur -26.5258 -7.82963 27.3301
rtibia 44.2804
rfoot 12.7762 1.97621
rtoes 1.98967
lfemur -23.152 4.17975 -15.3598
ltibia 41.7567
lfoot -0.707857 -5.45529
ltoes 6.69124
131
root 5.24305 18.8697 -10.9059 15.2646 7.59063 -1.81539
lowerback -2.48284 -1.13407 -1.75281
upperback -1.03221 -1.46825 -0.580776
thorax 0.362557 -0.731315 0.346687
lowerneck -9.06234 -4.11628 1.02775
upperneck 4.53806 -6.19109 7.94203
head 3.34137 -2.73459 2.08795
rclavicle -1.19271e-014 -1.66979e-014
rhumerus 0.855744 8.0942 3.68936
rradius 108.052
rwrist -6.85682
rhand -35.2362 -27.2585
rfingers 7.12502
rthumb -8.37268 -57.0725
lclavicle -1.19271e-014 -1.66979e-014
lhumerus 30.4528 7.15286 8.00165
lradius 104.509
lwrist 43.0563
lhand -23.1729 -2.79446
lfingers 7.12502
lthumb 3.27615 27.1601
rfemur -26.7936 -9.07087 27.372
rtibia 44.0006
rfoot 15.802 2.72629
rtoes -0.10739
lfemur -23.1172 4.8014 -14.7593
ltibia 41.8289
lfoot 1.82889 -3.78543
ltoes 7.71879
132
root 5.20533 19.2637 -10.7908 15.4746 8.03929 -1.9741
lowerback -2.76994 -1.37095 -2.1418
upperback -1.06839 -1.7697 -0.272848
thorax 0.513043 -0.881939 0.863554
lowerneck -8.87676 -4.32627 0.955535
upperneck 4.37761 -6.46142 8.15857
head 3.27452 -2.87154 2.16022
rclavicle 2.78299e-015 1.11319e-014
rhumerus -1.54459 7.67707 3.24357
rradius 109.548
rwrist -6.60751
rhand -36.2994 -28.704
rfingers 7.12502
rthumb -9.39867 -58.4744
lclavicle 2.78299e-015 1.11319e-014
lhumerus 29.975 9.29086 7.60311
lradius 105.591
lwrist 44.7318
lhand -23.6335 -2.18775
lfingers 7.12502
lthumb 2.83128 27.7732
rfemur -27.5011 -10.366 27.3109
rtibia 44.7048
rfoot 17.4834 3.61144
rtoes -2.83732
lfemur -23.3159 5.56407 -14.3122
ltibia 42.739
lfoot 3.42059 -1.65346
ltoes 8.57832
133
root 5.16875 19.6566 -10.7043 15.5546 8.43906 -2.06389
lowerback -2.61305 -1.59835 -2.48323
upperback -1.03067 -2.07016 0.0114237
thorax 0.495538 -1.03158 1.33906
lowerneck -8.69385 -4.51978 0.845751
upperneck 4.05902 -6.68502 8.27518
head 3.14918 -2.99592 2.20838
rclavicle -2.98177e-014 1.59028e-015
rhumerus -3.99513 7.27325 2.3462
rradius 110.973
rwrist -6.59665
rhand -37.4664 -30.5234
rfingers 7.12502
rthumb -10.5246 -60.2399
lclavicle -2.98177e-014 1.59028e-015
lhumerus 29.2651 11.431 7.72498
lradius 106.703
lwrist 45.8842
lhand -24.2981 -1.80198
lfingers 7.12502
lthumb 2.18942 28.1665
rfemur -28.5499 -11.7126 27.1243
rtibia 46.3955
rfoot 17.9398 4.74735
rtoes -5.69933
lfemur -23.6571 6.47277 -13.9924
ltibia 44.5178
lfoot 4.25097 0.641052
ltoes 9.38628
134
root 5.13502 20.0391 -10.6438 15.433 8.73125 -2.11719
lowerback -2.03163 -1.78027 -2.74169
upperback -0.90035 -2.32448 0.277384
thorax 0.335516 -1.15753 1.76414
lowerneck -8.56491 -4.69856 0.695014
upperneck 3.71614 -6.87559 8.26445
head 3.02074 -3.10895 2.22242
rclavicle 3.02153e-014 8.74653e-015
rhumerus -6.34576 6.9619 1.09207
rradius 112.194
rwrist -6.6832
rhand -38.6495 -32.4402
rfingers 7.12502
rthumb -11.6657 -62.0954
lclavicle 3.02153e-014 8.74653e-015
lhumerus 28.3556 13.4764 8.37974
lradius 107.827
lwrist 46.5046
lhand -25.1814 -1.65134
lfingers 7.12502
lthumb 1.33635 28.3242
rfemur -29.8569 -13.0785 26.789
rtibia 49.0393
rfoot 17.5366 6.03598
rtoes -7.96896
lfemur -24.0909 7.5204 -13.7415
ltibia 47.1925
lfoot 4.59948 2.76202
ltoes 10.3605
